<?xml version="1.0" encoding="utf-8"?>
<!-- Generator: Adobe Illustrator 24.1.2, SVG Export Plug-In . SVG Version: 6.00 Build 0)  -->
<svg version="1.1" id="Group_1_1_" xmlns="http://www.w3.org/2000/svg" xmlns:xlink="http://www.w3.org/1999/xlink" x="0px" y="0px"
	 viewBox="0 0 786 523" style="enable-background:new 0 0 786 523;" xml:space="preserve">
<style type="text/css">
	.st0{fill:#FFFFFF;}
	.st1{fill:#fff;}
</style>

	
		<image style="overflow:visible;enable-background:new    ;" width="384" height="351" id="Layer_13_copy_xA0_Image" xlink:href="./wp-content/themes/mims/img/map/7890BE7F.png"  transform="matrix(1 0 0 1 172 58)">
	</image>

	
		<image style="overflow:visible;enable-background:new    ;" width="384" height="345" id="Asset_1_x40_4x_xA0_Image" xlink:href="./wp-content/themes/mims/img/map/7890BE7D.png"  transform="matrix(1 0 0 1 173 58)">
	</image>


	<g id="Research_vessels" class="Research-vessels">
		
			<path class="st0" d="M506.4,23.8h1.9l2.1,4.2h2.5v-0.1l-2.5-4.6c0.7-0.3,1.2-0.7,1.5-1.2s0.5-1.2,0.5-1.9c0-1.1-0.4-1.9-1.1-2.5
				c-0.7-0.6-1.8-0.9-3.1-0.9H504V28h2.3v-4.2H506.4z M506.4,18.5h1.9c0.6,0,1.1,0.2,1.4,0.5s0.5,0.7,0.5,1.3c0,0.5-0.2,0.9-0.5,1.2
				c-0.3,0.3-0.8,0.4-1.4,0.4h-1.9V18.5z M521.9,26.1h-5.3v-3h4.5v-1.8h-4.5v-2.7h5.3v-1.9h-7.6V28h7.6V26.1z M528.7,26
				c-0.3,0.2-0.7,0.3-1.3,0.3c-1.5,0-2.2-0.6-2.2-1.9h-2.4c0,0.7,0.2,1.4,0.6,1.9c0.4,0.6,0.9,1,1.6,1.3c0.7,0.3,1.5,0.5,2.4,0.5
				c1.3,0,2.3-0.3,3-0.8c0.7-0.6,1.1-1.3,1.1-2.3c0-0.9-0.3-1.6-0.9-2.2c-0.6-0.6-1.6-1.1-2.9-1.5c-0.7-0.2-1.3-0.5-1.6-0.7
				c-0.4-0.3-0.6-0.6-0.6-0.9c0-0.4,0.2-0.7,0.5-1c0.3-0.2,0.8-0.4,1.3-0.4c0.6,0,1.1,0.1,1.4,0.4c0.3,0.3,0.5,0.7,0.5,1.2h2.3
				c0-0.7-0.2-1.3-0.5-1.8c-0.4-0.5-0.8-1-1.5-1.2c-0.6-0.3-1.4-0.4-2.2-0.4s-1.5,0.1-2.2,0.4c-0.6,0.3-1.1,0.6-1.5,1.1
				c-0.3,0.5-0.5,1-0.5,1.6c0,1.2,0.6,2.1,1.9,2.8c0.5,0.3,1.1,0.5,1.9,0.8c0.8,0.3,1.4,0.5,1.7,0.8c0.3,0.2,0.5,0.6,0.5,1
				C529.1,25.4,529,25.7,528.7,26z M540.7,26.1h-5.3v-3h4.5v-1.8h-4.5v-2.7h5.3v-1.9h-7.6V28h7.6V26.1z M545.3,16.6L541.1,28h2.5
				l0.8-2.3h4.1l0.8,2.3h2.5l-4.3-11.4H545.3z M545,23.8l1.4-4.3l1.4,4.3H545z M555.2,23.8h1.9l2.1,4.2h2.5v-0.1l-2.5-4.6
				c0.7-0.3,1.2-0.7,1.5-1.2s0.5-1.2,0.5-1.9c0-1.1-0.4-1.9-1.1-2.5c-0.7-0.6-1.8-0.9-3.1-0.9h-4.2V28h2.3L555.2,23.8L555.2,23.8z
				 M555.2,18.5h1.9c0.6,0,1.1,0.2,1.4,0.5c0.3,0.3,0.5,0.7,0.5,1.3c0,0.5-0.2,0.9-0.5,1.2c-0.3,0.3-0.8,0.4-1.4,0.4h-1.9V18.5z
				 M565.7,19.2c0.4-0.6,1-0.8,1.8-0.8c0.7,0,1.3,0.2,1.6,0.5c0.4,0.3,0.6,0.9,0.6,1.6h2.3c-0.1-1.3-0.6-2.3-1.4-3
				c-0.8-0.7-1.9-1.1-3.2-1.1c-0.9,0-1.8,0.2-2.5,0.7c-0.7,0.4-1.3,1.1-1.7,1.9s-0.6,1.8-0.6,2.9v0.7c0,1.7,0.4,3.1,1.3,4
				c0.8,1,2,1.5,3.4,1.5c1.3,0,2.4-0.4,3.2-1.1s1.3-1.7,1.4-2.9h-2.3c-0.1,0.7-0.3,1.2-0.6,1.5c-0.4,0.3-0.9,0.5-1.6,0.5
				c-0.8,0-1.4-0.3-1.8-0.9c-0.4-0.6-0.6-1.5-0.6-2.7v-0.9C565.1,20.7,565.3,19.8,565.7,19.2z M580.4,16.6v4.6h-4.6v-4.6h-2.3V28
				h2.3v-4.9h4.6V28h2.3V16.6H580.4z M508.2,44.4l-2.6-8.6H503l3.9,11.4h2.4l4-11.4h-2.6L508.2,44.4z M516.8,42.3h4.5v-1.8h-4.5
				v-2.7h5.3v-1.9h-7.6v11.4h7.6v-1.9h-5.3V42.3z M526.2,37.9c0.3-0.2,0.8-0.4,1.3-0.4c0.6,0,1.1,0.1,1.4,0.4
				c0.3,0.3,0.5,0.7,0.5,1.2h2.3c0-0.7-0.2-1.3-0.5-1.8c-0.4-0.5-0.8-1-1.5-1.2c-0.6-0.3-1.4-0.4-2.2-0.4s-1.5,0.1-2.2,0.4
				c-0.6,0.3-1.1,0.6-1.5,1.1c-0.3,0.5-0.5,1-0.5,1.6c0,1.2,0.6,2.1,1.9,2.8c0.5,0.3,1.1,0.5,1.9,0.8c0.8,0.3,1.4,0.5,1.7,0.8
				c0.3,0.2,0.5,0.6,0.5,1s-0.2,0.7-0.5,0.9s-0.7,0.3-1.3,0.3c-1.5,0-2.3-0.6-2.3-1.9H523c0,0.7,0.2,1.4,0.6,1.9
				c0.4,0.6,0.9,1,1.6,1.3c0.7,0.3,1.5,0.5,2.4,0.5c1.3,0,2.3-0.3,3-0.8c0.7-0.6,1.1-1.3,1.1-2.3c0-0.9-0.3-1.6-0.9-2.2
				c-0.6-0.6-1.6-1.1-2.9-1.5c-0.7-0.2-1.3-0.5-1.6-0.7c-0.4-0.3-0.6-0.6-0.6-0.9C525.7,38.5,525.9,38.1,526.2,37.9z M536,37.9
				c0.3-0.2,0.8-0.4,1.3-0.4c0.6,0,1.1,0.1,1.4,0.4c0.3,0.3,0.5,0.7,0.5,1.2h2.3c0-0.7-0.2-1.3-0.5-1.8c-0.4-0.5-0.8-1-1.5-1.2
				c-0.6-0.3-1.4-0.4-2.2-0.4s-1.5,0.1-2.2,0.4c-0.6,0.3-1.1,0.6-1.5,1.1c-0.3,0.5-0.5,1-0.5,1.6c0,1.2,0.6,2.1,1.9,2.8
				c0.5,0.3,1.1,0.5,1.9,0.8c0.8,0.3,1.4,0.5,1.7,0.8c0.3,0.2,0.5,0.6,0.5,1s-0.2,0.7-0.5,0.9s-0.7,0.3-1.3,0.3
				c-1.5,0-2.2-0.6-2.2-1.9h-2.4c0,0.7,0.2,1.4,0.6,1.9c0.4,0.6,0.9,1,1.6,1.3c0.7,0.3,1.5,0.5,2.4,0.5c1.3,0,2.3-0.3,3-0.8
				c0.7-0.6,1.1-1.3,1.1-2.3c0-0.9-0.3-1.6-0.9-2.2c-0.6-0.6-1.6-1.1-2.9-1.5c-0.7-0.2-1.3-0.5-1.6-0.7c-0.4-0.3-0.6-0.6-0.6-0.9
				C535.5,38.5,535.7,38.1,536,37.9z M545.5,42.3h4.5v-1.8h-4.5v-2.7h5.3v-1.9h-7.6v11.4h7.6v-1.9h-5.3V42.3z M554.5,35.8h-2.3v11.4
				h7.3v-1.9h-5V35.8z M563.5,37.9c0.3-0.2,0.8-0.4,1.3-0.4c0.6,0,1.1,0.1,1.4,0.4c0.3,0.3,0.5,0.7,0.5,1.2h2.3
				c0-0.7-0.2-1.3-0.5-1.8c-0.4-0.5-0.8-1-1.5-1.2c-0.6-0.3-1.4-0.4-2.2-0.4s-1.5,0.1-2.2,0.4c-0.6,0.3-1.1,0.6-1.5,1.1
				c-0.3,0.5-0.5,1-0.5,1.6c0,1.2,0.6,2.1,1.9,2.8c0.5,0.3,1.1,0.5,1.9,0.8c0.8,0.3,1.4,0.5,1.7,0.8c0.3,0.2,0.5,0.6,0.5,1
				s-0.2,0.7-0.5,0.9s-0.7,0.3-1.3,0.3c-1.5,0-2.3-0.6-2.3-1.9h-2.4c0,0.7,0.2,1.4,0.6,1.9c0.4,0.6,0.9,1,1.6,1.3
				c0.7,0.3,1.5,0.5,2.4,0.5c1.3,0,2.3-0.3,3-0.8c0.7-0.6,1.1-1.3,1.1-2.3c0-0.9-0.3-1.6-0.9-2.2c-0.6-0.6-1.6-1.1-2.9-1.5
				c-0.7-0.2-1.3-0.5-1.6-0.7c-0.4-0.3-0.6-0.6-0.6-0.9C563,38.5,563.2,38.1,563.5,37.9z"/>
		
	</g>
	<g id="Color_Fill_1" class="Research-vessels">
		
			<path class="st1" d="M756,64c-1.3,4.4-1.2,5.1-5,7c-1.3,0.3-2.7,0.7-4,1h-1c-6.8-15.5-5.2-34.6-5-54h-1c-1.9,15.3-0.9,25.8-1,46
				h-5v8h-9c-1.2-7.5-3.6-5.9-4-15h-12c-0.3-4.7-0.7-9.3-1-14h-14v6h-14c-1.3-3.3-2.7-6.7-4-10h-7c-3.1,8.3-6.2,11.4-6,23h-9v11h-16
				c-6.9-18.8-4.1-47.6-4-68h-1c-2.6,6.5-3.8,55.9-4,67h-5c-1-2.3-2-4.7-3-7c-11.5-5.4-23.9-7.4-40-7v1c5.7,8.7,11.3,17.3,17,26
				c0,8.7,31.3,5,43,5h140c0.7-8.7,1.3-17.3,2-26H756z M600,71c0.3-0.7,0.7-1.3,1-2c3,1.9,1.7,0.2,3,4C602.7,72.3,601.3,71.7,600,71
				z M715,58c3.6,0.7,3,0.4,5,2h-6C714.3,59.3,714.7,58.7,715,58z M706,46c-3.1,1-2.8,1.1-5-1C702.7,45.3,704.3,45.7,706,46z
				 M701,53h5v3h-5V53z M701,58h5v3h-5V58z M690,53h5v3h-5V53z M682,53h5v3h-5V53z M674,53h5v3h-5V53z M674,58h5v3h-5V58z M665,53h6
				v3h-6V53z M666,58h5v3c-2-0.3-4-0.7-6-1C665.3,59.3,665.7,58.7,666,58z M662,70c0.3-0.7,0.7-1.3,1-2c1.7,0.3,3.3,0.7,5,1
				C666,69.3,664,69.7,662,70z M669,70c0.3-0.7,0.7-1.3,1-2c1.7,0.3,3.3,0.7,5,1C673,69.3,671,69.7,669,70z M677,68
				c1.7,0.3,3.3,0.7,5,1C678.9,70,679.2,70.1,677,68z M682,58h5v3h-5V58z M684,68c1.7,0.3,3.3,0.7,5,1C685.9,70,686.2,70.1,684,68z
				 M690,58h5v3h-5V58z M691,68c1.7,0.3,3.3,0.7,5,1C692.9,70,693.2,70.1,691,68z M698,68c1.7,0.3,3.3,0.7,5,1
				C699.9,70,700.2,70.1,698,68z M705,68c1.7,0.3,3.3,0.7,5,1C706.9,70,707.2,70.1,705,68z M712,68c1.7,0.3,3.3,0.7,5,1
				C713.9,70,714.2,70.1,712,68z M719,68c1.7,0.3,3.3,0.7,5,1C720.9,70,721.2,70.1,719,68z M720,56c0.3-0.7,0.7-1.3,1-2
				c-4-0.3-8-0.7-12-1c0.7,1,1.3,2,2,3H720z"/>
		
	</g>
	<g id="point_observations" class="point-observations">
		
			<path class="st0" d="M452.4,497h2.1c1.3,0,2.4-0.3,3.2-1c0.8-0.6,1.1-1.5,1.1-2.6c0-0.7-0.2-1.4-0.5-2s-0.8-1-1.5-1.3
				s-1.4-0.5-2.3-0.5H450V501h2.3v-4H452.4z M452.4,491.5h2.1c0.6,0,1,0.2,1.4,0.5c0.3,0.3,0.5,0.8,0.5,1.4c0,0.5-0.2,1-0.5,1.3
				s-0.8,0.4-1.4,0.4h-2.1V491.5z M467.4,490.2c-0.7-0.5-1.6-0.7-2.5-0.7s-1.8,0.2-2.5,0.7s-1.3,1.1-1.7,2s-0.6,1.8-0.6,3v0.6
				c0,1.1,0.2,2.1,0.6,2.9s1,1.5,1.7,1.9c0.7,0.5,1.6,0.7,2.5,0.7c1,0,1.8-0.2,2.5-0.7s1.3-1.1,1.7-2c0.4-0.8,0.6-1.8,0.6-2.9v-0.5
				c0-1.1-0.2-2.1-0.6-2.9C468.7,491.3,468.1,490.6,467.4,490.2z M467.3,495.6c0,1.2-0.2,2.1-0.6,2.7s-1,0.9-1.8,0.9s-1.4-0.3-1.8-1
				c-0.4-0.6-0.6-1.5-0.6-2.7V495c0-1.2,0.2-2.1,0.6-2.7s1-0.9,1.8-0.9s1.4,0.3,1.8,0.9s0.6,1.5,0.6,2.7V495.6z M473.9,489.6h-2.3
				V501h2.3V489.6z M478.4,493.5l4.6,7.5h2.3v-11.4H483v7.5l-4.6-7.5H476V501h2.3v-7.5H478.4z M492.2,501v-9.5h3.5v-1.9h-9.3v1.9
				h3.4v9.5H492.2z M457,509.4c-0.7-0.5-1.6-0.7-2.5-0.7s-1.8,0.2-2.5,0.7s-1.3,1.1-1.7,2c-0.4,0.9-0.6,1.8-0.6,3v0.6
				c0,1.1,0.2,2.1,0.6,2.9c0.4,0.8,1,1.5,1.7,1.9c0.7,0.5,1.6,0.7,2.5,0.7c1,0,1.8-0.2,2.5-0.7s1.3-1.1,1.7-2
				c0.4-0.8,0.6-1.8,0.6-2.9v-0.5c0-1.1-0.2-2.1-0.6-2.9C458.4,510.5,457.8,509.8,457,509.4z M457,514.8c0,1.2-0.2,2.1-0.6,2.7
				c-0.4,0.6-1,0.9-1.8,0.9s-1.4-0.3-1.8-1c-0.4-0.6-0.6-1.5-0.6-2.7v-0.6c0-1.2,0.2-2.1,0.6-2.7c0.4-0.6,1-0.9,1.8-0.9
				s1.4,0.3,1.8,0.9c0.4,0.6,0.6,1.5,0.6,2.7V514.8z M467.6,514.3c0.5-0.2,0.9-0.5,1.2-0.9c0.3-0.4,0.4-0.9,0.4-1.5
				c0-1-0.4-1.8-1.1-2.3s-1.8-0.8-3.1-0.8h-4v11.4h4.4c1.3,0,2.3-0.3,3-0.9c0.7-0.6,1-1.4,1-2.5c0-0.6-0.2-1.2-0.5-1.6
				C468.7,514.8,468.2,514.5,467.6,514.3z M463.4,510.7h1.6c0.6,0,1.1,0.1,1.4,0.3c0.3,0.2,0.4,0.6,0.4,1.1c0,0.9-0.6,1.4-1.8,1.4
				h-1.7v-2.8H463.4z M466.7,517.9c-0.3,0.3-0.7,0.4-1.3,0.4h-2v-3.1h2.1c1.1,0,1.6,0.5,1.6,1.6C467.2,517.3,467,517.7,466.7,517.9z
				 M474,510.9c0.3-0.2,0.8-0.4,1.3-0.4c0.6,0,1.1,0.1,1.4,0.4s0.5,0.7,0.5,1.2h2.3c0-0.7-0.2-1.3-0.5-1.8c-0.4-0.5-0.8-1-1.5-1.2
				c-0.6-0.3-1.4-0.4-2.2-0.4c-0.8,0-1.5,0.1-2.2,0.4c-0.6,0.3-1.1,0.6-1.5,1.1c-0.3,0.5-0.5,1-0.5,1.6c0,1.2,0.6,2.1,1.9,2.8
				c0.5,0.3,1.1,0.5,1.9,0.8s1.4,0.5,1.7,0.8c0.3,0.2,0.5,0.6,0.5,1s-0.2,0.7-0.5,0.9s-0.7,0.3-1.3,0.3c-1.5,0-2.3-0.6-2.3-1.9h-2.4
				c0,0.7,0.2,1.4,0.6,1.9c0.4,0.6,0.9,1,1.6,1.3s1.5,0.5,2.4,0.5c1.3,0,2.3-0.3,3-0.8c0.7-0.6,1.1-1.3,1.1-2.3
				c0-0.9-0.3-1.6-0.9-2.2c-0.6-0.6-1.6-1.1-2.9-1.5c-0.7-0.2-1.3-0.5-1.6-0.7c-0.4-0.2-0.6-0.6-0.6-0.9
				C473.5,511.5,473.7,511.1,474,510.9z M483.5,515.3h4.5v-1.8h-4.5v-2.7h5.3v-1.9h-7.6v11.4h7.6v-1.9h-5.3V515.3z M498,514.2
				c0.3-0.5,0.5-1.2,0.5-1.9c0-1.1-0.4-1.9-1.1-2.5s-1.8-0.9-3.1-0.9h-4.2v11.4h2.3V516h1.9l2.1,4.2h2.5v-0.1l-2.5-4.6
				C497.2,515.1,497.7,514.7,498,514.2z M495.7,513.7c-0.3,0.3-0.8,0.4-1.4,0.4h-1.9v-3.4h1.9c0.6,0,1.1,0.2,1.4,0.5
				s0.5,0.7,0.5,1.3C496.2,513,496,513.4,495.7,513.7z M507,508.8l-2.6,8.6l-2.6-8.6h-2.6l3.9,11.4h2.4l4-11.4L507,508.8L507,508.8z
				 M513.3,508.8l-4.2,11.4h2.5l0.8-2.3h4.1l0.8,2.3h2.5l-4.3-11.4L513.3,508.8L513.3,508.8z M513,516l1.4-4.3l1.4,4.3H513z
				 M519.2,510.7h3.4v9.5h2.3v-9.5h3.5v-1.9h-9.3L519.2,510.7L519.2,510.7z M529.9,520.2h2.3v-11.4h-2.3V520.2z M541.5,509.4
				c-0.7-0.5-1.6-0.7-2.5-0.7s-1.8,0.2-2.5,0.7s-1.3,1.1-1.7,2s-0.6,1.8-0.6,3v0.6c0,1.1,0.2,2.1,0.6,2.9c0.4,0.8,1,1.5,1.7,1.9
				c0.7,0.5,1.6,0.7,2.5,0.7c1,0,1.8-0.2,2.5-0.7s1.3-1.1,1.7-2c0.4-0.8,0.6-1.8,0.6-2.9v-0.5c0-1.1-0.2-2.1-0.6-2.9
				C542.8,510.5,542.2,509.8,541.5,509.4z M541.4,514.8c0,1.2-0.2,2.1-0.6,2.7c-0.4,0.6-1,0.9-1.8,0.9s-1.4-0.3-1.8-1
				c-0.4-0.6-0.6-1.5-0.6-2.7v-0.6c0-1.2,0.2-2.1,0.6-2.7c0.4-0.6,1-0.9,1.8-0.9s1.4,0.3,1.8,0.9c0.4,0.6,0.6,1.5,0.6,2.7V514.8z
				 M552.4,516.3l-4.6-7.5h-2.3v11.4h2.3v-7.5l4.6,7.5h2.3v-11.4h-2.3V516.3z M561.2,513.5c-0.7-0.2-1.3-0.5-1.6-0.7
				c-0.4-0.2-0.6-0.6-0.6-0.9c0-0.4,0.2-0.7,0.5-1c0.3-0.2,0.8-0.4,1.3-0.4c0.6,0,1.1,0.1,1.4,0.4c0.3,0.3,0.5,0.7,0.5,1.2h2.3
				c0-0.7-0.2-1.3-0.5-1.8c-0.4-0.5-0.8-1-1.5-1.2c-0.6-0.3-1.4-0.4-2.2-0.4s-1.5,0.1-2.2,0.4c-0.6,0.3-1.1,0.6-1.5,1.1
				c-0.3,0.5-0.5,1-0.5,1.6c0,1.2,0.6,2.1,1.9,2.8c0.5,0.3,1.1,0.5,1.9,0.8c0.8,0.3,1.4,0.5,1.7,0.8c0.3,0.2,0.5,0.6,0.5,1
				s-0.2,0.7-0.5,0.9s-0.7,0.3-1.3,0.3c-1.5,0-2.2-0.6-2.2-1.9h-2.4c0,0.7,0.2,1.4,0.6,1.9c0.4,0.6,0.9,1,1.6,1.3
				c0.7,0.3,1.5,0.5,2.4,0.5c1.3,0,2.3-0.3,3-0.8c0.7-0.6,1.1-1.3,1.1-2.3c0-0.9-0.3-1.6-0.9-2.2
				C563.5,514.4,562.5,513.9,561.2,513.5z"/>
	
	</g>
	<g id="Color_Fill_2" class="point-observations">

			<path class="st1" d="M563,482c-1.8-23.7-8.2-43.3-8-67h-19c0,16.8-2.4,51-8,65c-2,2-1,1.4-5,2c1,3.7,2,7.3,3,11
				c8.5,5,24.3,2.5,36,3c2.9-4.3,4.3-7.9,6-14H563z M557,447c-6.3-1.6-14.7-6.2-18-11h16C555.7,439.7,556.3,443.3,557,447z M538,417
				h7v1c-3.2,2.8-4.2,4.7-6,9v1c2.3,0.7,4.7,1.3,7,2c2-0.7,4-1.3,6-2c-1.5-5.1-2.6-7-6-10c2.3-0.3,4.7-0.7,7-1v15h-15V417z M536,438
				c7,4,14,8,21,12v1c-7.7,2.7-15.3,5.3-23,8C534.7,452,535.3,445,536,438z M560,480h-29c0.7-5,1.3-10,2-15c9,4,18,8,27,12V480z
				 M534,463c-0.3-0.7-0.7-1.3-1-2c7.3-2.3,14.7-4.7,22-7c4.3,3.1,4.2,13.8,5,20C551.3,470.3,542.7,466.7,534,463z M555,498
				c-7-0.7-14-1.3-21-2C539.1,499.3,547.4,498.3,555,498z M565,496c2,0.7,4,1.3,6,2v-1C569,496.7,567,496.3,565,496z M524,498v-1h-4
				C521.3,497.3,522.7,497.7,524,498z"/>

	</g>
	<g id="Remotely_sensed" class="Remotely-sensed">

			<path class="st0" d="M12.9,57c0.3-0.5,0.5-1.2,0.5-1.9c0-1.1-0.4-1.9-1.1-2.5c-0.7-0.6-1.8-0.9-3.1-0.9H5V63h2.3v-4.2h1.9
				l2.1,4.2h2.5v-0.1l-2.5-4.6C12.1,57.9,12.6,57.5,12.9,57z M10.6,56.5c-0.3,0.3-0.8,0.4-1.4,0.4H7.4v-3.4h1.9
				c0.6,0,1.1,0.2,1.4,0.5c0.3,0.3,0.5,0.7,0.5,1.3C11.1,55.8,10.9,56.2,10.6,56.5z M17.6,58.1h4.5v-1.8h-4.5v-2.7h5.3v-1.9h-7.6V63
				h7.6v-1.9h-5.3C17.6,61.1,17.6,58.1,17.6,58.1z M33.8,63h2.4V51.6h-3.1l-2.9,8.3l-2.9-8.3h-3.1V63h2.3v-3.1l-0.2-5.4l3.1,8.5H31
				l3.1-8.5l-0.2,5.4L33.8,63L33.8,63z M40.2,62.5c0.7,0.5,1.6,0.7,2.5,0.7c1,0,1.8-0.2,2.5-0.7s1.3-1.1,1.7-2s0.6-1.8,0.6-2.9v-0.5
				c0-1.1-0.2-2.1-0.6-2.9c-0.4-0.9-1-1.5-1.7-2s-1.6-0.7-2.5-0.7s-1.8,0.2-2.5,0.7s-1.3,1.1-1.7,2s-0.6,1.8-0.6,3v0.6
				c0,1.1,0.2,2.1,0.6,2.9C38.9,61.4,39.5,62,40.2,62.5z M40.3,57c0-1.2,0.2-2.1,0.6-2.7c0.4-0.6,1-0.9,1.8-0.9s1.4,0.3,1.8,0.9
				c0.4,0.6,0.6,1.5,0.6,2.7v0.6c0,1.2-0.2,2.1-0.6,2.7c-0.4,0.6-1,0.9-1.8,0.9s-1.4-0.3-1.8-1c-0.4-0.6-0.6-1.5-0.6-2.7V57z
				 M57.2,51.6h-9.3v1.9h3.4V63h2.3v-9.5h3.5L57.2,51.6L57.2,51.6z M60.9,58.1h4.5v-1.8h-4.5v-2.7h5.3v-1.9h-7.6V63h7.6v-1.9h-5.3
				C60.9,61.1,60.9,58.1,60.9,58.1z M69.9,51.6h-2.3V63h7.3v-1.9h-5V51.6z M80.3,51.6l-2.4,5.1l-2.4-5.1H73l3.7,7.3V63h2.4v-4.1
				l3.7-7.3C82.8,51.6,80.3,51.6,80.3,51.6z M7.7,72.9C8,72.7,8.5,72.5,9,72.5c0.6,0,1.1,0.1,1.4,0.4c0.3,0.3,0.5,0.7,0.5,1.2h2.3
				c0-0.7-0.2-1.3-0.5-1.8c-0.4-0.5-0.8-1-1.5-1.2c-0.6-0.3-1.4-0.4-2.2-0.4s-1.5,0.1-2.2,0.4c-0.6,0.3-1.1,0.6-1.5,1.1
				c-0.3,0.5-0.5,1-0.5,1.6c0,1.2,0.6,2.1,1.9,2.8c0.5,0.3,1.1,0.5,1.9,0.8s1.4,0.5,1.7,0.8s0.5,0.6,0.5,1s-0.2,0.7-0.5,0.9
				C10,80.3,9.6,80.4,9,80.4c-1.5,0-2.3-0.6-2.3-1.9H4.5c0,0.7,0.2,1.4,0.6,1.9c0.4,0.6,0.9,1,1.6,1.3s1.5,0.5,2.4,0.5
				c1.3,0,2.3-0.3,3-0.8c0.7-0.6,1.1-1.3,1.1-2.3c0-0.9-0.3-1.6-0.9-2.2c-0.6-0.6-1.6-1.1-2.9-1.5c-0.7-0.2-1.3-0.5-1.6-0.7
				c-0.4-0.3-0.6-0.6-0.6-0.9C7.2,73.5,7.4,73.1,7.7,72.9z M17.2,77.3h4.5v-1.8h-4.5v-2.7h5.3v-1.9h-7.6v11.4h7.6v-1.9h-5.3V77.3z
				 M30.8,78.3l-4.6-7.5h-2.3v11.4h2.3v-7.5l4.6,7.5h2.3V70.8h-2.3V78.3z M37.8,72.9c0.3-0.2,0.8-0.4,1.3-0.4c0.6,0,1.1,0.1,1.4,0.4
				c0.3,0.3,0.5,0.7,0.5,1.2h2.3c0-0.7-0.2-1.3-0.5-1.8c-0.4-0.5-0.8-1-1.5-1.2c-0.6-0.3-1.4-0.4-2.2-0.4s-1.5,0.1-2.2,0.4
				c-0.6,0.3-1.1,0.6-1.5,1.1c-0.3,0.5-0.5,1-0.5,1.6c0,1.2,0.6,2.1,1.9,2.8c0.5,0.3,1.1,0.5,1.9,0.8c0.8,0.3,1.4,0.5,1.7,0.8
				s0.5,0.6,0.5,1s-0.2,0.7-0.5,0.9c-0.3,0.2-0.7,0.3-1.3,0.3c-1.5,0-2.3-0.6-2.3-1.9h-2.4c0,0.7,0.2,1.4,0.6,1.9
				c0.4,0.6,0.9,1,1.6,1.3c0.7,0.3,1.5,0.5,2.4,0.5c1.3,0,2.3-0.3,3-0.8c0.7-0.6,1.1-1.3,1.1-2.3c0-0.9-0.3-1.6-0.9-2.2
				c-0.6-0.6-1.6-1.1-2.9-1.5c-0.7-0.2-1.3-0.5-1.6-0.7c-0.4-0.3-0.6-0.6-0.6-0.9C37.4,73.5,37.5,73.1,37.8,72.9z M47.3,77.3h4.5
				v-1.8h-4.5v-2.7h5.3v-1.9H45v11.4h7.6v-1.9h-5.3V77.3z M60.2,71.5c-0.8-0.5-1.7-0.7-2.7-0.7H54v11.4h3.5c1,0,1.9-0.2,2.7-0.7
				s1.4-1.1,1.8-1.9c0.4-0.8,0.7-1.8,0.7-2.8v-0.5c0-1.1-0.2-2-0.7-2.8C61.6,72.6,61,72,60.2,71.5z M60.3,76.8c0,1.1-0.3,2-0.7,2.6
				c-0.5,0.6-1.2,0.9-2.1,0.9h-1.1v-7.6h1.2c0.9,0,1.6,0.3,2.1,0.9s0.7,1.5,0.7,2.6v0.6H60.3z"/>

	</g>
	<g id="Color_Fill_3" class="Remotely-sensed">

			<path class="st1" d="M94,98c10.7-10.7,21.3-21.3,32-32c-3.5-4.9-8.5-11.1-15-13c-10.3,11-20.7,22-31,33c4,4,8,8,12,12
				C92.7,98,93.3,98,94,98z M82,85c10-10.3,20-20.7,30-31c5,3.9,7.9,6.3,8,12c1-0.7,2-1.3,3-2c0.3,0.7,0.7,1.3,1,2
				c-7.7,8-15.3,16-23,24C91.6,97.5,89.2,94.7,82,85z M112,59c-0.7,0-1.3,0-2,0c0,0.7,0,1.3,0,2C111.9,59.6,110.6,60.9,112,59z
				 M115,62c-0.3,0.7-0.7,1.3-1,2c0.7,0.3,1.3,0.7,2,1C115.7,64,115.3,63,115,62z M106,64c-0.3,0.7-0.7,1.3-1,2c1,0,2,0,3,0
				C107.3,65.3,106.7,64.7,106,64z M111,66c-0.7,0.3-1.3,0.7-2,1c0.3,0.7,0.7,1.3,1,2C111.4,67,110.8,67.5,111,66z M117,66
				c0,1,0,2,0,3c0.7-1,1.3-2,2-3C118.3,66,117.7,66,117,66z M102,68c-0.3,0.7-0.7,1.3-1,2c0.7,0.3,1.3,0.7,2,1
				C102.7,70,102.3,69,102,68z M115,73c-0.3-1-0.7-2-1-3c-0.3,0.7-0.7,1.3-1,2c0.3,0.3,0.7,0.7,1,1C114.3,73,114.7,73,115,73z
				 M99,71c-0.3,0.7-0.7,1.3-1,2c0.7,0,1.3,0,2,0C99.7,72.3,99.3,71.7,99,71z M106,71c-0.7,0.3-1.3,0.7-2,1c0.7,0.7,1.3,1.3,2,2
				C106,73,106,72,106,71z M96,73c-0.3,1.3-0.7,2.7-1,4c1.3-0.3,2.7-0.7,4-1C97.6,74.1,98.1,74.4,96,73z M100,78c0,0.3,0,0.7,0,1
				c0.3,0,0.7,0,1,0c1.3-2.2,1.8-1.8,1-4C101.3,76,100.7,77,100,78z M108,78c1.9-1.4,0.6-0.1,2-2c-0.7,0-1.3,0-2,0
				C108,76.7,108,77.3,108,78z M93,78c-0.7,0-1.3,0-2,0c0,0.7,0,1.3,0,2C92.9,78.6,91.6,79.9,93,78z M100,79c-0.7,0-1.3,0-2,0
				C99.8,79.9,98.3,80,100,79z M103,83c0.7-0.3,1.3-0.7,2-1c-0.7-0.7-1.3-1.3-2-2C103,81,103,82,103,83z M97,106
				c-6-8.1-17.1-21.3-27-25c-4.7,5-9.3,10-14,15c2,3.5,24.5,26.7,27,26c4.7-4.7,9.3-9.3,14-14C97,107.3,97,106.7,97,106z M85,87
				c2.6-1.8,5.4-2.9,4-6C87.7,83,86.3,85,85,87z M97,82c-0.7,0-1.3,0-2,0c0,0.7,0,1.3,0,2C96.9,82.6,95.6,83.9,97,82z M90,86
				c0,1,0,2,0,3c1,0,2,0,3,0C90.6,86.1,94,87.4,90,86z M96,92c-1.4-2-1.1-1.6-3-3c0.7,1,1.3,2,2,3C95.3,92,95.7,92,96,92z M29,136
				c0,1,0,2,0,3c4.3,4,8.7,8,13,12c3.4-3.3,6.7-6.5,10.1-9.8c-4.5,3.9-8.9,7-12.1,7.8c-3.3-3.7-6.7-7.3-10-11c10-10.3,20-20.7,30-31
				c3.2,2.7,8.2,9.1,12,10c-0.9,3.3-5.9,10-11.9,16.4c4.6-4.5,9.3-9,13.9-13.4c0-0.7,0-1.3,0-2c-4.7-4.3-9.3-8.7-14-13
				C49.7,115.3,39.3,125.7,29,136z M60.1,133.4c-2.7,2.6-5.3,5.2-8,7.8C54.8,138.9,57.6,136.2,60.1,133.4z M103,132c1.3,0,2.7,0,4,0
				c-1-1,0.2-0.8,1-1c-1.9-4.9-6-6.2-9-10c1.7-2.3,3.3-4.7,5-7c1.3-1.3,2.7-2.7,4-4c-2.3-0.3-4.7-0.7-7-1c-7.6,4.9-11.9,7.5-16,16
				c0,2.3,0,4.7,0,7c0.7,0.3,1.3,0.7,2,1C91.9,126.2,100,118.2,103,132z M58,111c0,1,0,2,0,3c1,0,2,0,3,0C60,113,59,112,58,111z
				 M116,113c5.1,14.2,11.7,25.8-6,34c-11.2,0.1-14-2.6-20-7c-0.3,0.3-0.7,0.7-1,1c5,7,16.6,12.1,26,6
				C128.7,141.1,126.8,120.2,116,113z M64,115c-0.7,0-1.3,0-2,0c0,0.7,0,1.3,0,2C63.9,115.6,62.6,116.9,64,115z M55,116
				c-0.3,0.7-0.7,1.3-1,2c0.7,0.3,1.3,0.7,2,1C55.7,118,55.3,117,55,116z M93,137c1.6,5.4,4.2,6.1,9,8c8,0.2,12-1.2,15-6
				c6.7-6.5,4.1-19.7-5-22c4,5.3,6.3,7.8,6,18c-3.6,3.8-5.6,5.8-11,8c-7.3-0.7-8.7-2.8-13-6C93.7,137,93.3,137,93,137z M60,118
				c-0.3,0.7-0.7,1.3-1,2C60.8,118.7,59.6,118.9,60,118z M66,119c1.4,1.9,0.1,0.6,2,2C67.3,120.3,66.7,119.7,66,119z M51,120
				c-0.7,0.3-1.3,0.7-2,1c0.3,0.7,0.7,1.3,1,2C51.4,121,50.8,121.5,51,120z M56,123c2.7-1.6,1.4-0.3,3-3c-0.7,0-1.3,0-2,0
				C56.7,121,56.3,122,56,123z M97,134c-0.3,0.3-0.7,0.7-1,1c3.1,4.3,6.6,6.7,13,5c3.6-1.7,4.4-2.3,6-6c0.3-3,0.7-6,1-9
				c-2.3-1.7-4.7-3.3-7-5c1.7,2.3,3.3,4.7,5,7c-0.3,2.7-0.7,5.3-1,8C106.7,138.8,102.5,138,97,134z M65,122c-0.7,0-1.3,0-2,0
				C64.8,122.9,63.3,123,65,122z M52,127c1,0,2,0,3,0c-0.3-1-0.7-2-1-3C53.3,125,52.7,126,52,127z M61,124c0.7,0.7,1.3,1.3,2,2
				C61.6,124.1,62.9,125.4,61,124z M43,129c3.8-2,2.4-1.6,3-4c-0.7,0.3-1.3,0.7-2,1C43.7,127,43.3,128,43,129z M48,131
				c0.7,0.3,1.3,0.7,2,1c0.3-1.7,0.7-3.3,1-5C50,128.3,49,129.7,48,131z M56,131c0.7-0.3,1.3-0.7,2-1c-0.7-0.7-1.3-1.3-2-2
				C56,129,56,130,56,131z M43,137c1.7-3.1,0.7-3.3-2-7c-0.3,0.7-0.7,1.3-1,2c1,1,2,2,3,3C43,135.7,43,136.3,43,137z M37,136
				c1.4-2,0.8-1.5,1-3C37.7,134,37.3,135,37,136z M52,135c0.7-0.7,1.3-1.3,2-2c-1,0-2,0-3,0C51.3,133.7,51.7,134.3,52,135z M34,139
				c1-0.3,2-0.7,3-1c-0.7-0.7-1.3-1.3-2-2C34.7,137,34.3,138,34,139z M47,140c1.9-1.4,0.6-0.1,2-2c-0.7,0-1.3,0-2,0
				C47,138.7,47,139.3,47,140z M42,145c1.9-1.4,0.6-0.1,2-2c-0.7,0-1.3,0-2,0C42,143.7,42,144.3,42,145z"/>

	</g>

<g id="Group_4_xA0_Image_1_" class="point-observations info-curve">
			<path d="M500,481c-4.9-2.6-7.9-6-6-12.1c0.4-1.3-0.4-3.2-1.3-4.6c-3.9-6.4-8.1-12.6-12-19c-1.8-3-3.6-3-6.5-1.4
				c-28.2,15.5-58.3,24.4-90.4,26.1c-5.5,0.3-11,0.6-16.5,0.7c-1.8,0-3.7-0.1-5.4-0.8c-1.1-0.5-1.8-2-2.7-3.1c1.1-0.9,2-2.1,3.2-2.5
				c1.5-0.4,3.3-0.2,5-0.2c51.2,0.7,96.5-15.6,136.2-47.7c15.8-12.7,29.1-27.8,40.6-44.5c1.5-2.2,2.9-4.6,4.7-6.4
				c0.9-0.9,2.7-0.9,4.1-1.2c0.2,1.5,1.1,3.4,0.5,4.4c-3.2,5.2-6.6,10.4-10.3,15.3c-15.2,20.5-33.7,37.7-55.1,51.6
				c-3.6,2.3-3.9,4.1-1.5,7.4c3,4.2,5.7,8.6,8.4,13c2.5,4.1,4.9,7.8,10.1,9.6c5.3,1.8,5.8,9.1,1.5,12.8c-1.1,1-2.5,1.7-3.7,2.5
				C502,481,501,481,500,481z"/>
</g>
<g id="Group_4_copy_xA0_Image_1_" class="Research-vessels info-curve">
			<path d="M522,99.3c7-6.7,14.3-13.5,21.4-20.5c0.9-0.8,0.8-2.7,1-4.2c0.5-4.9,4-8.4,8.3-8.3c4.2,0.1,8,4,7.9,8.2
				c0,4.4-3.6,7.6-8.6,8.1c-1.7,0.2-3.7,0.6-4.9,1.6c-5.8,5.2-11.3,10.8-17.1,16c-3.2,2.9-3.2,4.8-0.2,8.1
				c24.1,26.5,40.9,57,49.9,91.7c0.8,2.9,3.3,7.5-1.3,8.5c-4.3,1-3.7-4.2-4.5-6.9c-10.7-39.6-31-73.5-61-101.5
				c-22.3-20.7-48-35.7-76.9-45.4c-2.8-0.9-7.6-1.2-6.1-5.4c1.4-4,5.3-1.2,7.8-0.3C468,58.9,494.6,75,518,96.5
				c0.9,0.8,1.7,1.6,2.6,2.3C520.8,99,521.2,99,522,99.3z"/>
</g>
<g id="Group_4_copy_2_xA0_Image_1_" class="Remotely-sensed info-curve">
			<path d="M145,121c2.3-4.1,5.1-7.8,10.5-6.1c1.9,0.6,4.4,2.2,4.8,3.8c1.2,5.3,5.3,7.3,9.2,9.8c4.3,2.8,8.8,5.4,13,8.4
				c3.6,2.7,5.6,1.7,7.9-1.9c16.5-24.9,37.3-45.5,62.3-61.8c4.6-3,9.3-5.9,14.2-8.3c1.7-0.8,5.3-1.1,6-0.2c2,2.9-0.9,4.3-3.1,5.5
				c-19.2,10.5-36.3,23.5-51.2,39.5c-32.8,35.1-52.4,76.3-56.9,124.3c-0.3,2.7-0.4,5.4-1,7.9c-0.3,1.3-1.8,2.3-2.7,3.4
				c-0.9-1.2-2.5-2.3-2.7-3.6c-0.4-2.8-0.2-5.7,0.1-8.5c3.2-29.8,11.6-58.1,26.6-84.2c1.8-3.1,1.2-4.6-1.7-6.3
				c-5-2.9-9.9-6.2-14.8-9.4c-3.5-2.2-6.5-4.4-11.4-3.1c-4.5,1.2-7.1-2.7-9.1-6.4C145,123,145,122,145,121z"/>
</g>
</svg>
